grf
version=1
nRows=15
nColumns=37
inDegrees=no
endheader
time	ground_force_1_vx	ground_force_1_vy	ground_force_1_vz	ground_force_1_px	ground_force_1_py	ground_force_1_pz	ground_moment_1_mx	ground_moment_1_my	ground_moment_1_mz	ground_force_2_vx	ground_force_2_vy	ground_force_2_vz	ground_force_2_px	ground_force_2_py	ground_force_2_pz	ground_moment_2_mx	ground_moment_2_my	ground_moment_2_mz	ground_force_3_vx	ground_force_3_vy	ground_force_3_vz	ground_force_3_px	ground_force_3_py	ground_force_3_pz	ground_moment_3_mx	ground_moment_3_my	ground_moment_3_mz	ground_force_4_vx	ground_force_4_vy	ground_force_4_vz	ground_force_4_px	ground_force_4_py	ground_force_4_pz	ground_moment_4_mx	ground_moment_4_my	ground_moment_4_mz
      0.00000000	      0.00000000	     -0.00000000	      0.00000000	      0.00000000	      0.00000000	      0.00000000	      0.00000000	      0.00000000	      0.00000000	      2.24814248	     11.42674255	   -168.67918396	   -338.61010901	   -943.89545463	      0.00000000	      0.00000000	      0.00000000	    955.81309945	     -2.96358798	    -15.96877562	   -476.24279785	   -336.31839241	   -720.40805751	      0.00000000	      0.00000000	     -0.00000000	  -2525.55899647	      0.00000000	     -0.00000000	      0.00000000	      0.00000000	      0.00000000	      0.00000000	      0.00000000	      0.00000000	      0.00000000
      0.01000000	      0.00000000	     -0.00000000	      0.00000000	      0.00000000	      0.00000000	      0.00000000	      0.00000000	      0.00000000	      0.00000000	      2.14105225	     12.06771946	   -167.76046753	   -337.74036228	   -941.76836375	      0.00000000	      0.00000000	      0.00000000	   1177.25587379	     -3.24696539	    -15.96863542	   -473.86828613	   -336.65858238	   -721.37007240	      0.00000000	      0.00000000	     -0.00000000	  -2487.22803027	      0.00000000	     -0.00000000	      0.00000000	      0.00000000	      0.00000000	      0.00000000	      0.00000000	      0.00000000	      0.00000000
      0.02000000	      0.00000000	     -0.00000000	      0.00000000	      0.00000000	      0.00000000	      0.00000000	      0.00000000	      0.00000000	      0.00000000	      1.53638613	     11.97814369	   -169.02932739	   -336.89933239	   -945.51540085	      0.00000000	      0.00000000	      0.00000000	    840.37952173	     -3.54843210	    -16.05681022	   -475.12380981	   -336.00862365	   -720.91446620	      0.00000000	      0.00000000	     -0.00000000	  -2340.64183375	      0.00000000	     -0.00000000	      0.00000000	      0.00000000	      0.00000000	      0.00000000	      0.00000000	      0.00000000	      0.00000000
      0.03000000	      0.00000000	     -0.00000000	      0.00000000	      0.00000000	      0.00000000	      0.00000000	      0.00000000	      0.00000000	      0.00000000	      1.37478018	     12.51484585	   -170.29592896	   -337.21694682	   -948.32912373	      0.00000000	      0.00000000	      0.00000000	    877.73020358	     -3.44176553	    -16.02091583	   -474.15213013	   -336.24068376	   -720.46191475	      0.00000000	     -0.00000000	     -0.00000000	  -2498.00343477	      0.00000000	     -0.00000000	      0.00000000	      0.00000000	      0.00000000	      0.00000000	      0.00000000	      0.00000000	      0.00000000
      0.04000000	      0.00000000	     -0.00000000	      0.00000000	      0.00000000	      0.00000000	      0.00000000	      0.00000000	      0.00000000	      0.00000000	      1.51657867	     12.37371540	   -170.08666992	   -336.17505724	   -947.01988302	      0.00000000	      0.00000000	      0.00000000	    983.22567213	     -3.67158291	    -15.70498164	   -472.81567383	   -335.56132716	   -720.88251586	      0.00000000	      0.00000000	     -0.00000000	  -2507.26295102	      0.00000000	     -0.00000000	      0.00000000	      0.00000000	      0.00000000	      0.00000000	      0.00000000	      0.00000000	      0.00000000
      0.05000000	      0.00000000	     -0.00000000	      0.00000000	      0.00000000	      0.00000000	      0.00000000	      0.00000000	      0.00000000	      0.00000000	      2.17449784	     12.47825623	   -172.07221985	   -336.14999373	   -949.61943216	      0.00000000	      0.00000000	      0.00000000	   1303.01553811	     -3.79877826	    -15.56033309	   -472.61743164	   -335.73681047	   -720.72527391	      0.00000000	      0.00000000	     -0.00000000	  -2430.00661379	      0.00000000	     -0.00000000	      0.00000000	      0.00000000	      0.00000000	      0.00000000	      0.00000000	      0.00000000	      0.00000000
      0.06000000	      0.00000000	     -0.00000000	      0.00000000	      0.00000000	      0.00000000	      0.00000000	      0.00000000	      0.00000000	      0.00000000	      1.89215827	     13.02728558	   -171.21807861	   -337.31851248	   -945.67408137	      0.00000000	      0.00000000	      0.00000000	   1147.70903753	     -4.09588928	    -15.29795057	   -472.11279297	   -335.68664737	   -720.03830488	      0.00000000	     -0.00000000	     -0.00000000	  -2359.90607603	      0.00000000	     -0.00000000	      0.00000000	      0.00000000	      0.00000000	      0.00000000	      0.00000000	      0.00000000	      0.00000000
      0.07000000	      0.00000000	     -0.00000000	      0.00000000	      0.00000000	      0.00000000	      0.00000000	      0.00000000	      0.00000000	      0.00000000	      1.92487288	     12.73196602	   -171.44175720	   -337.45508293	   -945.18319989	      0.00000000	      0.00000000	      0.00000000	   1104.80933714	     -4.08069677	    -15.17289048	   -470.85977173	   -335.18838853	   -720.79406265	      0.00000000	      0.00000000	     -0.00000000	  -2377.26929246	      0.00000000	     -0.00000000	      0.00000000	      0.00000000	      0.00000000	      0.00000000	      0.00000000	      0.00000000	      0.00000000
      0.08000000	      0.00000000	     -0.00000000	      0.00000000	      0.00000000	      0.00000000	      0.00000000	      0.00000000	      0.00000000	      0.00000000	      2.01381183	     12.99404049	   -173.89186096	   -335.96324066	   -947.67246867	      0.00000000	      0.00000000	      0.00000000	   1124.67750924	     -3.86596437	    -15.43772108	   -469.07543945	   -335.45437193	   -721.20159443	      0.00000000	     -0.00000000	     -0.00000000	  -2336.11020442	      0.00000000	     -0.00000000	      0.00000000	      0.00000000	      0.00000000	      0.00000000	      0.00000000	      0.00000000	      0.00000000
      0.09000000	      0.00000000	     -0.00000000	      0.00000000	      0.00000000	      0.00000000	      0.00000000	      0.00000000	      0.00000000	      0.00000000	      1.62494600	     12.57995892	   -174.14372253	   -337.20168237	   -945.49164548	      0.00000000	      0.00000000	      0.00000000	   1065.69547799	     -3.64241429	    -15.35450729	   -468.58224487	   -335.66243712	   -720.72069998	      0.00000000	      0.00000000	     -0.00000000	  -2356.41236133	      0.00000000	     -0.00000000	      0.00000000	      0.00000000	      0.00000000	      0.00000000	      0.00000000	      0.00000000	      0.00000000
      0.10000000	      0.00000000	     -0.00000000	      0.00000000	      0.00000000	      0.00000000	      0.00000000	      0.00000000	      0.00000000	      0.00000000	      1.75291550	     13.20327854	   -175.02438354	   -336.34293562	   -944.70678925	      0.00000000	      0.00000000	      0.00000000	   1098.01952142	     -3.21854279	    -15.72125993	   -467.51403809	   -335.91748696	   -720.92789242	      0.00000000	      0.00000000	     -0.00000000	  -2235.07967576	      0.00000000	     -0.00000000	      0.00000000	      0.00000000	      0.00000000	      0.00000000	      0.00000000	      0.00000000	      0.00000000
      0.11000000	      0.00000000	     -0.00000000	      0.00000000	      0.00000000	      0.00000000	      0.00000000	      0.00000000	      0.00000000	      0.00000000	      2.10215831	     12.92390823	   -176.39076233	   -338.91325642	   -946.08101327	      0.00000000	      0.00000000	      0.00000000	   1198.75493759	     -3.24412988	    -16.00522599	   -466.14382935	   -336.41922986	   -720.95682248	      0.00000000	      0.00000000	     -0.00000000	  -2271.87717135	      0.00000000	     -0.00000000	      0.00000000	      0.00000000	      0.00000000	      0.00000000	      0.00000000	      0.00000000	      0.00000000
      0.12000000	      0.00000000	     -0.00000000	      0.00000000	      0.00000000	      0.00000000	      0.00000000	      0.00000000	      0.00000000	      0.00000000	      2.21935320	     13.55872059	   -178.15768433	   -338.80926865	   -945.92191588	      0.00000000	      0.00000000	      0.00000000	   1238.13312687	     -2.66132424	    -15.86696613	   -465.73934937	   -336.56070178	   -720.44720545	      0.00000000	      0.00000000	     -0.00000000	  -2391.69223263	      0.00000000	     -0.00000000	      0.00000000	      0.00000000	      0.00000000	      0.00000000	      0.00000000	      0.00000000	      0.00000000
      0.13000000	      0.00000000	     -0.00000000	      0.00000000	      0.00000000	      0.00000000	      0.00000000	      0.00000000	      0.00000000	      0.00000000	      2.11101556	     13.16128922	   -178.54930115	   -339.48795833	   -943.41470090	      0.00000000	      0.00000000	      0.00000000	   1091.41165174	     -2.54515787	    -15.56389225	   -463.94631958	   -337.13616090	   -720.45818035	      0.00000000	      0.00000000	     -0.00000000	  -2347.26140240	      0.00000000	     -0.00000000	      0.00000000	      0.00000000	      0.00000000	      0.00000000	      0.00000000	      0.00000000	      0.00000000
      0.14000000	      0.00000000	     -0.00000000	      0.00000000	      0.00000000	      0.00000000	      0.00000000	      0.00000000	      0.00000000	      0.00000000	      2.17108297	     13.20144749	   -181.10263062	   -340.16189753	   -949.51761745	      0.00000000	      0.00000000	      0.00000000	   1038.39932789	     -2.34549946	    -15.07295694	   -462.35351562	   -337.29882692	   -720.82112837	      0.00000000	      0.00000000	     -0.00000000	  -2401.12878813	      0.00000000	     -0.00000000	      0.00000000	      0.00000000	      0.00000000	      0.00000000	      0.00000000	      0.00000000	      0.00000000
